<svg width="190" height="144" viewBox="0 0 190 144" fill="none" xmlns="http://www.w3.org/2000/svg">
<path d="M174.095 6.5L93.4188 132.019L11.9667 6.5H93H174.095Z" stroke="#FC6337" stroke-width="13"/>
<g style="mix-blend-mode:lighten">
<g style="mix-blend-mode:lighten">
<path d="M15.369 41.702H21.259V71H15.369V59.296H9.51704V71H3.66504V41.702H9.51704V53.406H15.369V41.702ZM41.7482 47.554H32.9702V53.406H40.3042V59.296H32.9702V65.148H41.7482V71H27.1182V41.702H41.7482V47.554ZM62.2696 71H47.6396V41.702H53.4916V65.148H62.2696V71ZM77.0876 65.148H80.0136V71H68.3096V65.148H71.2356V47.554H68.3096V41.702H77.0876V65.148ZM101.593 77.004H85.8234V74.42H101.593V77.004ZM119.116 41.702V44.59L113.226 59.828V71H107.374V59.828L101.522 44.59V41.702H107.374V43.488L110.3 51.126L113.226 43.488V41.702H119.116ZM139.606 47.554H130.828V53.406H138.162V59.296H130.828V65.148H139.606V71H124.976V41.702H139.606V47.554ZM158.531 41.702L166.017 67.656V71H160.127V68.492L159.177 65.148H152.299L151.349 68.492V71H145.497V67.656L152.945 41.702H158.531ZM154.009 59.296H157.505L155.757 53.216L154.009 59.296ZM183.586 41.702H189.476V71H183.586V59.296H177.734V71H171.882V41.702H177.734V53.406H183.586V41.702Z" fill="#8a19f0"/>
</g>
</g>
</svg>
